<?xml version="1.0" standalone="no"?> 
<svg width="2000" height="100%" version="1.1" xmlns="http://www.w3.org/2000/svg">
<rect x="0.110002106023133" width="24.3141321680005" y="150" height="145" style="fill:rgb(0,0,255);fill-opacity:0.5;stroke-width:1;stroke:rgb(0,0,0)"/>
<text transform="translate(6.11000210602313,154) rotate(90)">init_static_idmap</text>
<rect x="65.9425958240568" width="27.8121991395391" y="150" height="145" style="fill:rgb(0,255,0);fill-opacity:0.5;stroke-width:1;stroke:rgb(0,0,0)"/>
<text transform="translate(71.9425958240568,154) rotate(90)">vfp_init</text>
<rect x="95.177488868163" width="47.3522399061315" y="150" height="145" style="fill:rgb(255,0,20);fill-opacity:0.5;stroke-width:1;stroke:rgb(0,0,0)"/>
<text transform="translate(101.177488868163,154) rotate(90)">init_jiffies_clocksource</text>
<rect x="142.595730037908" width="20.5337264576689" y="150" height="145" style="fill:rgb(255,255,20);fill-opacity:0.5;stroke-width:1;stroke:rgb(0,0,0)"/>
<text transform="translate(148.595730037908,154) rotate(90)">futex_init</text>
<rect x="163.848136921596" width="5.61010740718464" y="150" height="145" style="fill:rgb(255,0,255);fill-opacity:0.5;stroke-width:1;stroke:rgb(0,0,0)"/>
<text transform="translate(164.848136921596,154) rotate(90)" font-size="3pt">filelock_init</text>
<rect x="170.022921806366" width="17.8203411757626" y="150" height="145" style="fill:rgb(0,255,255);fill-opacity:0.5;stroke-width:1;stroke:rgb(0,0,0)"/>
<text transform="translate(176.022921806366,154) rotate(90)">pinctrl_init</text>
<rect x="188.983618147903" width="18.0036780191348" y="150" height="145" style="fill:rgb(0,128,255);fill-opacity:0.5;stroke-width:1;stroke:rgb(0,0,0)"/>
<text transform="translate(194.983618147903,154) rotate(90)">netlink_proto_init</text>
<rect x="207.181633221012" width="34.2436556050305" y="150" height="145" style="fill:rgb(0,255,128);fill-opacity:0.5;stroke-width:1;stroke:rgb(0,0,0)"/>
<text transform="translate(213.181633221012,154) rotate(90)">atomic_pool_init</text>
<rect x="243.467661261207" width="2.87838844094102" y="150" height="145" style="fill:rgb(255,0,128);fill-opacity:0.5;stroke-width:1;stroke:rgb(0,0,0)"/>
<text transform="translate(244.467661261207,154) rotate(90)" font-size="3pt">init_atags_procfs</text>
<rect x="246.382717070822" width="65.586922347915" y="150" height="145" style="fill:rgb(255,255,128);fill-opacity:0.5;stroke-width:1;stroke:rgb(0,0,0)"/>
<text transform="translate(252.382717070822,154) rotate(90)">arch_hw_breakpoint_init</text>
<rect x="312.336313105482" width="6.05744930501226" y="150" height="145" style="fill:rgb(255,128,255);fill-opacity:0.5;stroke-width:1;stroke:rgb(0,0,0)"/>
<text transform="translate(313.336313105482,154) rotate(90)" font-size="3pt">icatchtek_devices_init</text>
<rect x="318.459763674108" width="29.1945589385642" y="150" height="145" style="fill:rgb(128,255,255);fill-opacity:0.5;stroke-width:1;stroke:rgb(0,0,0)"/>
<text transform="translate(324.459763674108,154) rotate(90)">icatchtek_ampIpc_init</text>
<rect x="347.811992297972" width="1.88836948673196" y="150" height="145" style="fill:rgb(0,0,255);fill-opacity:0.5;stroke-width:1;stroke:rgb(0,0,0)"/>
<text transform="translate(348.811992297972,154) rotate(90)" font-size="3pt">of_platform_default_populate_init</text>
<rect x="350.444709368795" width="12.9069137733918" y="150" height="145" style="fill:rgb(0,255,0);fill-opacity:0.5;stroke-width:1;stroke:rgb(0,0,0)"/>
<text transform="translate(351.444709368795,154) rotate(90)" font-size="3pt">param_sysfs_init</text>
<rect x="371.447778145496" width="1.87736927612957" y="150" height="145" style="fill:rgb(255,0,20);fill-opacity:0.5;stroke-width:1;stroke:rgb(0,0,0)"/>
<text transform="translate(372.447778145496,154) rotate(90)" font-size="3pt">net_dev_init</text>
<rect x="374.384834376316" width="22.1214235212709" y="150" height="145" style="fill:rgb(255,255,20);fill-opacity:0.5;stroke-width:1;stroke:rgb(0,0,0)"/>
<text transform="translate(380.384834376316,154) rotate(90)">clocksource_done_booting</text>
<rect x="397.961952433961" width="45.5518721042181" y="150" height="145" style="fill:rgb(255,0,255);fill-opacity:0.5;stroke-width:1;stroke:rgb(0,0,0)"/>
<text transform="translate(403.961952433961,154) rotate(90)">dquot_init</text>
<rect x="445.024520127565" width="4.05541097538958" y="150" height="145" style="fill:rgb(0,255,255);fill-opacity:0.5;stroke-width:1;stroke:rgb(0,0,0)"/>
<text transform="translate(446.024520127565,154) rotate(90)" font-size="3pt">chr_dev_init</text>
<rect x="449.508939316445" width="171.746288134063" y="150" height="145" style="fill:rgb(0,128,255);fill-opacity:0.5;stroke-width:1;stroke:rgb(0,0,0)"/>
<text transform="translate(455.508939316445,154) rotate(90)">inet_init</text>
<rect x="621.420230609543" width="13.0352495637522" y="150" height="145" style="fill:rgb(0,255,128);fill-opacity:0.5;stroke-width:1;stroke:rgb(0,0,0)"/>
<text transform="translate(622.420230609543,154) rotate(90)" font-size="3pt">af_unix_init</text>
<rect x="639.233238311571" width="21.2927409892292" y="150" height="145" style="fill:rgb(255,0,128);fill-opacity:0.5;stroke-width:1;stroke:rgb(0,0,0)"/>
<text transform="translate(645.233238311571,154) rotate(90)">icatchtek_serial_init</text>
<rect x="660.709316144172" width="16.2326441121608" y="150" height="145" style="fill:rgb(255,255,128);fill-opacity:0.5;stroke-width:1;stroke:rgb(0,0,0)"/>
<text transform="translate(661.709316144172,154) rotate(90)" font-size="3pt">icat_virt_serial_init</text>
<rect x="676.98962783561" width="2.48971433299255" y="150" height="145" style="fill:rgb(255,128,255);fill-opacity:0.5;stroke-width:1;stroke:rgb(0,0,0)"/>
<text transform="translate(677.98962783561,154) rotate(90)" font-size="3pt">ipc_drv_init</text>
<rect x="679.523343011011" width="21.5787464648893" y="150" height="145" style="fill:rgb(128,255,255);fill-opacity:0.5;stroke-width:1;stroke:rgb(0,0,0)"/>
<text transform="translate(685.523343011011,154) rotate(90)">puart_init</text>
<rect x="706.451858565497" width="26.8185134484623" y="150" height="145" style="fill:rgb(0,0,255);fill-opacity:0.5;stroke-width:1;stroke:rgb(0,0,0)"/>
<text transform="translate(712.451858565497,154) rotate(90)">workingset_init</text>
<rect x="733.717713911788" width="28.3695431433902" y="150" height="145" style="fill:rgb(0,255,0);fill-opacity:0.5;stroke-width:1;stroke:rgb(0,0,0)"/>
<text transform="translate(739.717713911788,154) rotate(90)">slab_sysfs_init</text>
<rect x="763.102943167459" width="1.67203201155314" y="150" height="145" style="fill:rgb(255,0,20);fill-opacity:0.5;stroke-width:1;stroke:rgb(0,0,0)"/>
<text transform="translate(764.102943167459,154) rotate(90)" font-size="3pt">dio_init</text>
<rect x="765.592657500451" width="24.7578073289608" y="150" height="145" style="fill:rgb(255,255,20);fill-opacity:0.5;stroke-width:1;stroke:rgb(0,0,0)"/>
<text transform="translate(771.592657500451,154) rotate(90)">init_squashfs_fs</text>
<rect x="790.401799145556" width="39.4724223780007" y="150" height="145" style="fill:rgb(255,0,255);fill-opacity:0.5;stroke-width:1;stroke:rgb(0,0,0)"/>
<text transform="translate(796.401799145556,154) rotate(90)">init_jffs2_fs</text>
<rect x="830.878907425236" width="2.16337475179046" y="150" height="145" style="fill:rgb(0,255,255);fill-opacity:0.5;stroke-width:1;stroke:rgb(0,0,0)"/>
<text transform="translate(831.878907425236,154) rotate(90)" font-size="3pt">crypto_null_mod_init</text>
<rect x="838.183047265178" width="2.97739033636208" y="150" height="145" style="fill:rgb(0,128,255);fill-opacity:0.5;stroke-width:1;stroke:rgb(0,0,0)"/>
<text transform="translate(839.183047265178,154) rotate(90)" font-size="3pt">drbg_init</text>
<rect x="841.204438443949" width="12.9435811420665" y="150" height="145" style="fill:rgb(0,255,128);fill-opacity:0.5;stroke-width:1;stroke:rgb(0,0,0)"/>
<text transform="translate(842.204438443949,154) rotate(90)" font-size="3pt">jent_mod_init</text>
<rect x="854.789698537818" width="14.3956089415733" y="150" height="145" style="fill:rgb(255,0,128);fill-opacity:0.5;stroke-width:1;stroke:rgb(0,0,0)"/>
<text transform="translate(855.789698537818,154) rotate(90)" font-size="3pt">af_alg_init</text>
<rect x="870.079991275046" width="19.7453780311695" y="150" height="145" style="fill:rgb(255,255,128);fill-opacity:0.5;stroke-width:1;stroke:rgb(0,0,0)"/>
<text transform="translate(876.079991275046,154) rotate(90)">noop_init</text>
<rect x="894.757130392924" width="24.3031319573984" y="150" height="145" style="fill:rgb(255,128,255);fill-opacity:0.5;stroke-width:1;stroke:rgb(0,0,0)"/>
<text transform="translate(900.757130392924,154) rotate(90)">mousedev_init</text>
<rect x="922.437327005235" width="13.258920512666" y="150" height="145" style="fill:rgb(128,255,255);fill-opacity:0.5;stroke-width:1;stroke:rgb(0,0,0)"/>
<text transform="translate(923.437327005235,154) rotate(90)" font-size="3pt">packet_init</text>
<rect x="936.022587099103" width="18.9973637102112" y="150" height="145" style="fill:rgb(0,0,255);fill-opacity:0.5;stroke-width:1;stroke:rgb(0,0,0)"/>
<text transform="translate(942.022587099103,154) rotate(90)">thumbee_init</text>
<rect x="955.624962392442" width="228.357038630483" y="150" height="145" style="fill:rgb(0,255,0);fill-opacity:0.5;stroke-width:1;stroke:rgb(0,0,0)"/>
<text transform="translate(961.624962392442,154) rotate(90)">icatchtek_nand_init</text>
<rect x="1184.1543376557" width="2.32837791082511" y="150" height="145" style="fill:rgb(255,0,20);fill-opacity:0.5;stroke-width:1;stroke:rgb(0,0,0)"/>
<text transform="translate(1185.1543376557,154) rotate(90)" font-size="3pt">pm_qos_power_init</text>
<rect x="1186.98872525423" width="2.12304064624823" y="150" height="145" style="fill:rgb(255,255,20);fill-opacity:0.5;stroke-width:1;stroke:rgb(0,0,0)"/>
<text transform="translate(1187.98872525423,154) rotate(90)" font-size="3pt">ubifs_init</text>
<rect x="1189.74611137854" width="758.84586166436" y="150" height="145" style="fill:rgb(255,0,255);fill-opacity:0.5;stroke-width:1;stroke:rgb(0,0,0)"/>
<text transform="translate(1195.74611137854,154) rotate(90)">ubi_init</text>
<text transform="translate(0,89) rotate(90)">0.31</text>
<text transform="translate(130,89) rotate(90)">0.34</text>
<text transform="translate(260,89) rotate(90)">0.38</text>
<text transform="translate(390,89) rotate(90)">0.41</text>
<text transform="translate(520,89) rotate(90)">0.45</text>
<text transform="translate(650,89) rotate(90)">0.48</text>
<text transform="translate(780,89) rotate(90)">0.52</text>
<text transform="translate(910,89) rotate(90)">0.55</text>
<text transform="translate(1040,89) rotate(90)">0.59</text>
<text transform="translate(1170,89) rotate(90)">0.63</text>
<text transform="translate(1300,89) rotate(90)">0.66</text>
<text transform="translate(1430,89) rotate(90)">0.7</text>
<text transform="translate(1560,89) rotate(90)">0.73</text>
<text transform="translate(1690,89) rotate(90)">0.77</text>
<text transform="translate(1820,89) rotate(90)">0.8</text>
</svg>
